<?xml version="1.0" encoding="iso-8859-1"?>
<!-- Generator: Adobe Illustrator 19.0.0, SVG Export Plug-In . SVG Version: 6.00 Build 0)  -->
<svg xmlns="http://www.w3.org/2000/svg" xmlns:xlink="http://www.w3.org/1999/xlink" version="1.1" id="Layer_1" x="0px" y="0px" viewBox="0 0 512.001 512.001" style="enable-background:new 0 0 512.001 512.001;" xml:space="preserve" width="512px" height="512px">
<g>
	<g>
		<path d="M326.189,64.625c-19.406-31.47-39.899-50.819-54.728-59.622v99.491h75.313C340.756,90.463,333.888,77.112,326.189,64.625z    " fill="#FFFFFF"/>
	</g>
</g>
<g>
	<g>
		<path d="M482.497,135.415h-91.912c9.705,33.237,15.388,68.772,16.646,105.126h104.771    C509.804,203.344,499.71,167.648,482.497,135.415z" fill="#FFFFFF"/>
	</g>
</g>
<g>
	<g>
		<path d="M358.293,135.415H271.46v105.126h104.828C374.932,203.914,368.785,168.28,358.293,135.415z" fill="#FFFFFF"/>
	</g>
</g>
<g>
	<g>
		<path d="M29.504,135.415C12.292,167.648,2.197,203.344,0,240.541h104.769c1.257-36.353,6.941-71.888,16.646-105.126H29.504z" fill="#FFFFFF"/>
	</g>
</g>
<g>
	<g>
		<path d="M104.769,271.461H0c2.197,37.197,12.292,72.894,29.504,105.126h91.911C111.711,343.348,106.028,307.814,104.769,271.461z" fill="#FFFFFF"/>
	</g>
</g>
<g>
	<g>
		<path d="M159.495,463.603c-10.696-17.346-19.932-36.176-27.631-56.097h-82.86c7.711,10.489,16.263,20.472,25.641,29.85    c32.342,32.342,71.804,54.964,114.847,66.442C179.066,492.382,168.89,478.839,159.495,463.603z" fill="#FFFFFF"/>
	</g>
</g>
<g>
	<g>
		<path d="M437.354,74.646C405.013,42.304,365.55,19.682,322.507,8.204c10.427,11.415,20.603,24.957,29.998,40.193    c10.696,17.347,19.932,36.176,27.631,56.098h82.86C455.284,94.007,446.732,84.024,437.354,74.646z" fill="#FFFFFF"/>
	</g>
</g>
<g>
	<g>
		<path d="M185.812,64.626c-7.699,12.486-14.567,25.837-20.584,39.87h75.313V5.003C225.711,13.806,205.217,33.155,185.812,64.626z" fill="#FFFFFF"/>
	</g>
</g>
<g>
	<g>
		<path d="M74.646,74.646c-9.378,9.378-17.93,19.361-25.641,29.85h82.86c7.699-19.922,16.935-38.751,27.631-56.098    c9.394-15.236,19.571-28.779,29.998-40.193C146.45,19.682,106.987,42.306,74.646,74.646z" fill="#FFFFFF"/>
	</g>
</g>
<g>
	<g>
		<path d="M271.46,271.461v105.126h86.833c10.492-32.864,16.64-68.499,17.995-105.126H271.46z" fill="#FFFFFF"/>
	</g>
</g>
<g>
	<g>
		<path d="M407.231,271.461c-1.257,36.353-6.941,71.888-16.646,105.126h91.911c17.213-32.234,27.307-67.929,29.504-105.126H407.231z    " fill="#FFFFFF"/>
	</g>
</g>
<g>
	<g>
		<path d="M380.136,407.507L380.136,407.507c-7.699,19.921-16.935,38.75-27.631,56.097c-9.394,15.236-19.571,28.779-29.998,40.194    c43.043-11.477,82.505-34.101,114.847-66.442c9.378-9.378,17.93-19.361,25.642-29.85H380.136z" fill="#FFFFFF"/>
	</g>
</g>
<g>
	<g>
		<path d="M165.228,407.506c6.017,14.032,12.885,27.383,20.584,39.87c19.405,31.47,39.898,50.819,54.728,59.622v-99.491H165.228z" fill="#FFFFFF"/>
	</g>
</g>
<g>
	<g>
		<path d="M271.459,407.505v99.492c14.83-8.802,35.323-28.151,54.728-59.622c7.699-12.486,14.567-25.837,20.584-39.87H271.459z" fill="#FFFFFF"/>
	</g>
</g>
<g>
	<g>
		<path d="M135.712,271.461c1.356,36.627,7.503,72.262,17.996,105.126h86.833V271.461H135.712z" fill="#FFFFFF"/>
	</g>
</g>
<g>
	<g>
		<path d="M153.708,135.415c-10.492,32.864-16.64,68.499-17.996,105.126h104.829V135.415H153.708z" fill="#FFFFFF"/>
	</g>
</g>
<g>
</g>
<g>
</g>
<g>
</g>
<g>
</g>
<g>
</g>
<g>
</g>
<g>
</g>
<g>
</g>
<g>
</g>
<g>
</g>
<g>
</g>
<g>
</g>
<g>
</g>
<g>
</g>
<g>
</g>
</svg>
